<svg width="34" height="34" fill="none" xmlns="http://www.w3.org/2000/svg"><path d="M24.682 5.995H8.984c-1.495 0-2.711 1.108-2.711 2.711v15.698c0 1.603 1.216 2.711 2.711 2.711h15.698c1.495 0 2.711-1.108 2.711-2.711V8.706c0-1.603-1.216-2.71-2.711-2.71zm-3.97 3.303c0-.527.43-.947.946-.947h2.389c.527 0 .947.43.947.947v2.281c0 .527-.43.947-.947.947h-2.389a.948.948 0 01-.946-.947V9.3zm-3.852 3.11c2.345 0 4.239 1.84 4.239 4.11 0 2.27-1.904 4.11-4.24 4.11-2.345 0-4.238-1.84-4.238-4.11 0-2.27 1.893-4.11 4.239-4.11zm8.144 11.447a.84.84 0 01-.839.84H9.458a.84.84 0 01-.84-.84v-8.93h1.937a6.282 6.282 0 00-.269 1.808c0 3.518 2.937 6.358 6.563 6.358s6.563-2.85 6.563-6.358c0-.624-.097-1.238-.269-1.808h1.861v8.93z" fill="#868695"/></svg>