<svg width="140" height="139" fill="none" xmlns="http://www.w3.org/2000/svg"><path d="M70 138.949c-38.154 0-69.225-31.071-69.225-69.225C.775 31.571 31.846.5 70 .5c5.48 0 10.961.632 16.273 1.94 2.825.674 4.553 3.54 3.879 6.365-.675 2.825-3.542 4.553-6.366 3.879A58.177 58.177 0 0070 11.04c-32.378 0-58.685 26.307-58.685 58.684 0 32.378 26.307 58.685 58.685 58.685s58.685-26.307 58.685-58.685c0-4.005-.422-7.968-1.181-11.846a5.29 5.29 0 014.09-6.24c2.824-.59 5.649 1.265 6.239 4.09a69.902 69.902 0 011.391 13.954c0 38.196-31.071 69.267-69.224 69.267z" fill="#3A86FF"/></svg>