<svg width="74" height="68" fill="none" xmlns="http://www.w3.org/2000/svg"><rect x=".719" y=".738" width="73.258" height="66.281" rx="10" fill="#3E0B39"/><path d="M50.59 24.715l-6.435-6.31a.86.86 0 00-.633-.268H27.267a3.455 3.455 0 00-3.447 3.447v24.589a3.455 3.455 0 003.447 3.447h20.161a3.455 3.455 0 003.447-3.447V25.379c0-.253-.11-.49-.284-.664zm-6.15-3.463l3.257 3.194H44.74a.3.3 0 01-.3-.3v-2.894zm4.585 24.92c0 .886-.711 1.598-1.597 1.598H27.267a1.593 1.593 0 01-1.597-1.597v-24.59c0-.885.711-1.596 1.597-1.596h15.338v4.174c0 1.186.965 2.135 2.135 2.135h4.285v19.877z" fill="#FF006E"/><path d="M43.744 32.763H30.746a.918.918 0 000 1.834h12.998a.918.918 0 000-1.834zm-12.998 5.535H41.34a.918.918 0 000-1.835H30.746a.918.918 0 000 1.835zm11.875 1.85H30.746a.918.918 0 000 1.834H42.62a.918.918 0 000-1.834z" fill="#FF006E"/></svg>