<svg width="126" height="42" fill="none" xmlns="http://www.w3.org/2000/svg"><path d="M60.596 17.25L59.4 19.584c-1.31-.74-2.676-1.167-3.672-1.167-.797 0-1.395.256-1.395.883 0 1.821 6.347.882 6.319 5.151 0 2.448-2.163 3.757-4.896 3.757-1.935 0-3.842-.569-5.208-1.679l1.11-2.334c1.252.968 2.874 1.509 4.184 1.509.882 0 1.508-.285 1.508-.94 0-1.935-6.233-.882-6.233-5.123 0-2.476 2.135-3.757 4.753-3.757 1.68.029 3.387.513 4.725 1.366zm14.544 3.302v7.57h-3.444v-6.546c0-1.508-.882-2.447-2.362-2.447-1.708.028-2.761 1.309-2.761 3.074v5.92h-3.444V11.5h3.444v6.688c.854-1.508 2.277-2.248 4.155-2.248 2.676 0 4.412 1.793 4.412 4.61zm14.8 1.538c0 3.672-2.59 6.148-6.432 6.148-3.87 0-6.46-2.476-6.46-6.148 0-3.7 2.59-6.12 6.46-6.12 3.843 0 6.433 2.42 6.433 6.12zm-9.449.057c0 1.964 1.196 3.302 2.989 3.302 1.764 0 2.988-1.338 2.988-3.302s-1.224-3.302-2.988-3.302c-1.765-.028-2.989 1.31-2.989 3.302zm24.734 0c0 3.643-2.22 6.09-5.578 6.09-1.68 0-2.989-.682-3.871-1.878v6.091h-3.444V16.085h3.444v1.764c.854-1.195 2.163-1.878 3.814-1.878 3.358 0 5.635 2.476 5.635 6.176zm-3.472-.114c0-1.935-1.195-3.302-2.989-3.302-1.764 0-2.988 1.367-2.988 3.302 0 1.992 1.224 3.33 2.988 3.33 1.765.029 2.989-1.338 2.989-3.33zm9.335-9.393c0 1.11-.769 1.936-1.85 1.936-1.082 0-1.85-.797-1.85-1.936 0-1.11.768-1.935 1.85-1.935 1.081.028 1.85.825 1.85 1.935zm-3.586 15.455v-12.01h3.443v12.039h-3.443v-.029zm12.58 1.367c-.854 2.135-2.334 3.16-4.412 3.16-1.281 0-2.277-.37-3.273-1.168l1.452-2.476c.54.456.996.655 1.565.655.712 0 1.252-.37 1.594-1.082l.341-.683-4.98-11.783h3.557l3.16 8.282 2.846-8.282h3.444l-5.294 13.377z" fill="#fff"/><path opacity=".8" d="M30.654 32.165c5.643 0 10.218-4.575 10.218-10.218s-4.575-10.218-10.218-10.218-10.218 4.575-10.218 10.218 4.575 10.218 10.218 10.218z" fill="#8338EC"/><path opacity=".8" d="M10.218 32.165c5.643 0 10.218-4.575 10.218-10.218S15.86 11.729 10.218 11.729 0 16.304 0 21.947s4.575 10.218 10.218 10.218z" fill="#3A86FF"/><path opacity=".8" d="M20.435 21.377c5.643 0 10.218-4.575 10.218-10.218S26.078.941 20.435.941 10.217 5.516 10.217 11.16s4.575 10.218 10.218 10.218z" fill="#FFBE0B"/><path opacity=".8" d="M20.435 41.67c5.643 0 10.218-4.575 10.218-10.218s-4.575-10.218-10.218-10.218-10.218 4.575-10.218 10.218S14.792 41.67 20.435 41.67z" fill="#FB5607"/></svg>