<svg width="74" height="67" fill="none" xmlns="http://www.w3.org/2000/svg"><rect x=".719" y=".099" width="73.258" height="66.281" rx="10" fill="#3E3125"/><path d="M54.215 16.082h-14.08a.993.993 0 00-.914.613c-.143.378-.072.793.215 1.081l3.839 3.856-9.596 11.8-.987-1.747a.944.944 0 00-.789-.487.922.922 0 00-.843.379L19.205 46.963c-.574.739-.503 1.747.143 2.414a1.816 1.816 0 002.404.162l11.891-9.134 1.166 1.892c.161.252.43.432.717.468a.965.965 0 00.807-.288l13.668-13.729 3.497 3.513c.287.289.7.36 1.076.216a.997.997 0 00.61-.918V17.073a.96.96 0 00-.968-.99zm-.986 13.08l-2.511-2.522a.988.988 0 00-.7-.288.988.988 0 00-.699.288l-13.47 13.567-1.094-1.766a1.017 1.017 0 00-.664-.45.98.98 0 00-.77.18l-11.874 9.116 10.259-13.314.95 1.694c.162.288.449.468.772.504a.95.95 0 00.843-.36l11.066-13.62a.999.999 0 00-.072-1.334l-2.762-2.793H53.23v11.099z" fill="#FFBE0B"/><path d="M30.038 28.82a2.301 2.301 0 002.296-2.306 2.301 2.301 0 00-2.296-2.306 2.3 2.3 0 00-2.295 2.306 2.3 2.3 0 002.296 2.306zm2.673-3.91a.882.882 0 00.879-.882.867.867 0 00-.879-.865.867.867 0 00-.86.883c0 .486.376.865.86.865zm12.053 17.549a2.301 2.301 0 002.295-2.306 2.301 2.301 0 00-2.295-2.306 2.3 2.3 0 00-2.296 2.306 2.3 2.3 0 002.296 2.306zm-2.673-.721a.867.867 0 00-.86.883c0 .486.394.882.86.882a.894.894 0 00.88-.882.894.894 0 00-.88-.883z" fill="#FFBE0B"/></svg>