<svg width="58" height="78" fill="none" xmlns="http://www.w3.org/2000/svg"><path d="M3.89 77.814A3.864 3.864 0 01.029 73.95V9.872A3.864 3.864 0 013.89 6.01h7.617V9.1H46.49V6.01h7.618a3.864 3.864 0 013.863 3.863v64.094a3.864 3.864 0 01-3.863 3.863H3.891v-.015z" fill="#8338EC"/><path d="M17.767 41.317c6.4 0 11.588-5.189 11.588-11.589s-5.188-11.589-11.588-11.589c-6.4 0-11.59 5.189-11.59 11.589s5.19 11.589 11.59 11.589z" fill="#BF8F08"/><path d="M10.04 29.728a11.58 11.58 0 019.658-11.419c-6.304-1.066-12.3 3.183-13.366 9.488-1.066 6.304 3.183 12.3 9.488 13.366 1.282.216 2.596.216 3.878 0a11.595 11.595 0 01-9.657-11.435z" fill="#FFBE0B"/><path d="M13.008.91h31.97a1.5 1.5 0 011.498 1.5v6.814a1.86 1.86 0 01-1.854 1.854H13.363a1.86 1.86 0 01-1.854-1.854V2.409A1.5 1.5 0 0113.008.911z" fill="#CFCFD5"/><path d="M48.423 39.355h-8.468c-.633 0-1.159.525-1.159 1.159 0 .633.526 1.159 1.16 1.159h8.467c.633 0 1.159-.526 1.159-1.16 0-.633-.526-1.158-1.16-1.158zm-16.317 2.318h2.843c.633 0 1.159-.526 1.159-1.16 0-.633-.526-1.158-1.16-1.158h-2.842c-.634 0-1.16.525-1.16 1.159 0 .633.526 1.159 1.16 1.159zm16.317 10.213H45.55c-.633 0-1.159.526-1.159 1.16 0 .633.526 1.158 1.159 1.158h2.874c.634 0 1.159-.525 1.159-1.159 0-.633-.525-1.159-1.159-1.159zm-6.891 2.318c.633 0 1.159-.525 1.159-1.159 0-.633-.526-1.159-1.16-1.159H26.189c-.633 0-1.159.526-1.159 1.16 0 .633.526 1.158 1.16 1.158h15.343zm-19.408-2.318h-1.035c-.634 0-1.16.526-1.16 1.16 0 .633.526 1.158 1.16 1.158h1.035c.633 0 1.159-.525 1.159-1.159 0-.633-.526-1.159-1.16-1.159zm-12.594 0c-.633 0-1.158.526-1.158 1.16 0 .633.525 1.158 1.158 1.158h6.568c.633 0 1.158-.525 1.158-1.159 0-.633-.525-1.159-1.159-1.159H9.53zm38.892 11.589h-6.628c-.634 0-1.16.526-1.16 1.159s.526 1.159 1.16 1.159h6.629c.633 0 1.158-.526 1.158-1.159s-.525-1.159-1.159-1.159zm-10.8 0h-.82c-.633 0-1.158.526-1.158 1.159s.525 1.159 1.159 1.159h.834c.634 0 1.16-.526 1.16-1.159a1.17 1.17 0 00-1.175-1.159zm-4.094 0h-6.305c-.633 0-1.159.526-1.159 1.159s.526 1.159 1.16 1.159h6.304c.633 0 1.159-.526 1.159-1.159s-.51-1.159-1.16-1.159zm-11.404 0H9.53c-.633 0-1.158.526-1.158 1.159s.525 1.159 1.158 1.159h12.594c.633 0 1.159-.526 1.159-1.159s-.526-1.159-1.16-1.159zm26.298-33.994h-.741c-.634 0-1.159.525-1.159 1.159 0 .633.525 1.159 1.159 1.159h.742c.633 0 1.158-.526 1.158-1.16 0-.633-.525-1.158-1.159-1.158zM34.47 31.799h8.22c.634 0 1.16-.526 1.16-1.16 0-.633-.526-1.158-1.16-1.158h-8.22a1.158 1.158 0 100 2.318zm13.953-11.975h-8.282c-.634 0-1.16.525-1.16 1.159 0 .633.526 1.159 1.16 1.159h8.282c.633 0 1.159-.526 1.159-1.16 0-.633-.526-1.158-1.159-1.158zM34.47 22.142h.68c.633 0 1.159-.526 1.159-1.16 0-.633-.526-1.158-1.16-1.158h-.68a1.158 1.158 0 10.001 2.318z" fill="#FFBE0B"/><path d="M17.766 42.492c7.046 0 12.748-5.702 12.748-12.748 0-7.046-5.702-12.748-12.748-12.748-7.046 0-12.747 5.702-12.747 12.748 0 7.03 5.717 12.732 12.747 12.748zm0-23.178c5.764 0 10.43 4.666 10.43 10.43 0 5.763-4.666 10.43-10.43 10.43a10.426 10.426 0 01-10.43-10.43c0-5.764 4.667-10.43 10.43-10.43z" fill="#284268"/><path d="M15.093 33.7a.905.905 0 001.283 0l6.644-6.645a.905.905 0 00-.015-1.283.886.886 0 00-1.268 0l-5.995 5.996-1.947-1.947a.905.905 0 00-1.282-.016.905.905 0 00-.016 1.283l.016.015 2.58 2.596z" fill="#284268"/></svg>