<svg width="75" height="67" fill="none" xmlns="http://www.w3.org/2000/svg"><rect x=".752" y=".099" width="73.258" height="66.281" rx="10" fill="#172656"/><path d="M53.678 22.154h-1.343v-2.5c0-.884-.34-1.717-.969-2.346a3.318 3.318 0 00-2.363-.986H37.865c-.663 0-1.292.255-1.768.73L19.451 33.699c-.63.63-.97 1.463-.97 2.347 0 .884.34 1.717.97 2.346l10.797 10.797a3.291 3.291 0 002.346.969 3.29 3.29 0 002.347-.97l10.474-10.473a.862.862 0 000-1.224.862.862 0 00-1.224 0L33.717 47.964a1.58 1.58 0 01-1.14.476 1.58 1.58 0 01-1.139-.476L20.641 37.166a1.58 1.58 0 01-.476-1.14c0-.441.17-.832.476-1.139l16.646-16.645a.744.744 0 01.544-.221H48.97c.425 0 .833.17 1.139.476.306.306.476.697.476 1.14v6.018h-3.18a.885.885 0 01-.493-.153 2.83 2.83 0 001.53-2.516c0-.765-.289-1.462-.833-2.006a2.83 2.83 0 00-2.006-.834 2.79 2.79 0 00-2.006.834 2.83 2.83 0 00-.834 2.006c0 .765.29 1.462.834 2.006.374.374.85.646 1.377.765a2.657 2.657 0 002.431 1.615h3.18v3.384a.786.786 0 01-.221.544l-2.007 2.006a.835.835 0 00-.255.612c0 .238.085.442.255.613.17.17.374.255.613.255a.835.835 0 00.612-.255l2.006-2.007a2.482 2.482 0 00.731-1.768v-3.384h1.343a2.62 2.62 0 002.619-2.618 2.59 2.59 0 00-2.602-2.601zm.902 2.618a.907.907 0 01-.901.901h-1.344v-1.802h1.343c.494 0 .902.408.902.901zm-8.077-2.448a2.698 2.698 0 00-1.547 1.564c-.034-.034-.085-.068-.12-.102a1.121 1.121 0 01-.322-.782c0-.29.119-.578.323-.782.204-.204.493-.323.782-.323.289 0 .578.119.782.323.051.034.068.068.102.102z" fill="#3A86FF"/><path d="M35.298 39.054c.425 0 .833-.17 1.14-.476a1.58 1.58 0 00.475-1.139c0-.425-.17-.833-.476-1.14a1.58 1.58 0 00-1.14-.475c-.424 0-.832.17-1.138.476a1.58 1.58 0 00-.476 1.139c0 .442.17.833.476 1.14a1.61 1.61 0 001.139.475zm1.496-7.889c.63-.629.63-1.65 0-2.261a1.58 1.58 0 00-1.139-.476c-.425 0-.833.17-1.14.476a1.59 1.59 0 001.14 2.72c.425 0 .833-.153 1.14-.459z" fill="#3A86FF"/><path d="M26.252 33.953a.863.863 0 00-.255-.612c-.323-.323-.884-.323-1.224 0l-2.092 2.092a.875.875 0 00-.255.612c0 .238.085.442.255.612l9.301 9.3c.17.17.374.255.612.255a.834.834 0 00.612-.255l13.91-13.908a.862.862 0 000-1.224l-9.302-9.3a.895.895 0 00-1.224 0l-7.668 7.668a.862.862 0 000 1.224c.34.34.884.34 1.224 0l7.056-7.073 6.904 6.903-19.078 5.27.952-.952a.823.823 0 00.272-.612zm-.63 3.197l19.283-5.322L32.61 44.121l-6.988-6.971zm20.66-1.734a.907.907 0 00-.255.612.875.875 0 00.867.867.862.862 0 00.612-.255.906.906 0 00.255-.612.862.862 0 00-.255-.612c-.323-.306-.901-.306-1.224 0z" fill="#3A86FF"/><path d="M28.071 32.491a.863.863 0 000-1.224.894.894 0 00-1.224 0 .941.941 0 00-.255.612c0 .221.085.442.255.612a.907.907 0 00.612.255.863.863 0 00.612-.255z" fill="#3A86FF"/></svg>