<svg width="34" height="34" fill="none" xmlns="http://www.w3.org/2000/svg"><path d="M25.858 11.758l.01.578c0 5.941-4.511 12.805-12.759 12.805-2.527 0-4.888-.745-6.873-2.036a8.917 8.917 0 006.63-1.869c-1.963-.033-3.614-1.335-4.19-3.126.276.056.553.078.842.078.41 0 .809-.056 1.175-.156A4.485 4.485 0 017.1 13.627v-.045a4.419 4.419 0 002.029.556A4.506 4.506 0 017.145 10.4c0-.823.222-1.602.61-2.27a12.659 12.659 0 009.234 4.696 4.389 4.389 0 01-.11-1.024 4.481 4.481 0 014.478-4.494c1.286 0 2.46.545 3.281 1.413a9.204 9.204 0 002.85-1.08 4.5 4.5 0 01-1.974 2.492 9.166 9.166 0 002.583-.712 9.537 9.537 0 01-2.24 2.337z" fill="#fff"/></svg>